<?xml version="1.0" encoding="UTF-8" standalone="no"?>
<!DOCTYPE svg PUBLIC "-//W3C//DTD SVG 1.1//EN"
 "http://www.w3.org/Graphics/SVG/1.1/DTD/svg11.dtd">
<!-- Generated by graphviz version 2.46.0 (20210119.1425)
 -->
<!-- Title: dependencies Pages: 1 -->
<svg width="504pt" height="211pt"
 viewBox="0.00 0.00 504.00 211.00" xmlns="http://www.w3.org/2000/svg" xmlns:xlink="http://www.w3.org/1999/xlink">
<g id="graph0" class="graph" transform="scale(1 1) rotate(0) translate(4 207)">
<title>dependencies</title>
<polygon fill="white" stroke="transparent" points="-4,4 -4,-207 500,-207 500,4 -4,4"/>
<text text-anchor="start" x="227.01" y="-42.4" font-family="sans-serif" font-weight="bold" font-size="14.00">Legend</text>
<polygon fill="#ffffb3" stroke="transparent" points="14,-10 14,-30 34,-30 34,-10 14,-10"/>
<text text-anchor="start" x="37.63" y="-15.4" font-family="sans-serif" font-size="14.00"> &#160;Declarations</text>
<polygon fill="#8dd3c7" stroke="transparent" points="127,-10 127,-30 147,-30 147,-10 127,-10"/>
<text text-anchor="start" x="150.73" y="-15.4" font-family="sans-serif" font-size="14.00"> &#160;Module</text>
<polygon fill="#80b1d3" stroke="transparent" points="213,-10 213,-30 233,-30 233,-10 213,-10"/>
<text text-anchor="start" x="236.78" y="-15.4" font-family="sans-serif" font-size="14.00"> &#160;Bootstrap</text>
<polygon fill="#fdb462" stroke="transparent" points="310,-10 310,-30 330,-30 330,-10 310,-10"/>
<text text-anchor="start" x="333.67" y="-15.4" font-family="sans-serif" font-size="14.00"> &#160;Providers</text>
<polygon fill="#fb8072" stroke="transparent" points="406,-10 406,-30 426,-30 426,-10 406,-10"/>
<text text-anchor="start" x="429.73" y="-15.4" font-family="sans-serif" font-size="14.00"> &#160;Exports</text>
<g id="clust1" class="cluster">
<title>cluster_AppModule</title>
<polygon fill="none" stroke="black" stroke-dasharray="1,5" points="134,-70 134,-195 362,-195 362,-70 134,-70"/>
</g>
<g id="clust3" class="cluster">
<title>cluster_AppModule_imports</title>
<polygon fill="none" stroke="black" points="142,-78 142,-130 354,-130 354,-78 142,-78"/>
</g>
<!-- CardModule -->
<g id="node1" class="node">
<title>CardModule</title>
<polygon fill="#8dd3c7" stroke="black" points="346.26,-122 343.26,-126 322.26,-126 319.26,-122 259.74,-122 259.74,-86 346.26,-86 346.26,-122"/>
<text text-anchor="middle" x="303" y="-99.8" font-family="Times,serif" font-size="14.00">CardModule</text>
</g>
<!-- AppModule -->
<g id="node3" class="node">
<title>AppModule</title>
<polygon fill="#8dd3c7" stroke="black" points="290.66,-187 287.66,-191 266.66,-191 263.66,-187 207.34,-187 207.34,-151 290.66,-151 290.66,-187"/>
<text text-anchor="middle" x="249" y="-164.8" font-family="Times,serif" font-size="14.00">AppModule</text>
</g>
<!-- CardModule&#45;&gt;AppModule -->
<g id="edge1" class="edge">
<title>CardModule&#45;&gt;AppModule</title>
<path fill="none" stroke="black" d="M275.22,-122.11C275.22,-122.11 275.22,-140.99 275.22,-140.99"/>
<polygon fill="black" stroke="black" points="271.72,-140.99 275.22,-150.99 278.72,-140.99 271.72,-140.99"/>
</g>
<!-- NewsModule -->
<g id="node2" class="node">
<title>NewsModule</title>
<polygon fill="#8dd3c7" stroke="black" points="241.92,-122 238.92,-126 217.92,-126 214.92,-122 150.08,-122 150.08,-86 241.92,-86 241.92,-122"/>
<text text-anchor="middle" x="196" y="-99.8" font-family="Times,serif" font-size="14.00">NewsModule</text>
</g>
<!-- NewsModule&#45;&gt;AppModule -->
<g id="edge2" class="edge">
<title>NewsModule&#45;&gt;AppModule</title>
<path fill="none" stroke="black" d="M224.44,-122.11C224.44,-122.11 224.44,-140.99 224.44,-140.99"/>
<polygon fill="black" stroke="black" points="220.94,-140.99 224.44,-150.99 227.94,-140.99 220.94,-140.99"/>
</g>
</g>
</svg>
