<?xml version="1.0" encoding="UTF-8" standalone="no"?>
<!DOCTYPE svg PUBLIC "-//W3C//DTD SVG 1.1//EN"
 "http://www.w3.org/Graphics/SVG/1.1/DTD/svg11.dtd">
<!-- Generated by graphviz version 2.46.0 (20210119.1425)
 -->
<!-- Title: dependencies Pages: 1 -->
<svg width="914pt" height="222pt"
 viewBox="0.00 0.00 914.00 222.00" xmlns="http://www.w3.org/2000/svg" xmlns:xlink="http://www.w3.org/1999/xlink">
<g id="graph0" class="graph" transform="scale(1 1) rotate(0) translate(4 218)">
<title>dependencies</title>
<polygon fill="white" stroke="transparent" points="-4,4 -4,-218 910,-218 910,4 -4,4"/>
<text text-anchor="start" x="432.01" y="-42.4" font-family="sans-serif" font-weight="bold" font-size="14.00">Legend</text>
<polygon fill="#ffffb3" stroke="transparent" points="219,-10 219,-30 239,-30 239,-10 219,-10"/>
<text text-anchor="start" x="242.63" y="-15.4" font-family="sans-serif" font-size="14.00"> &#160;Declarations</text>
<polygon fill="#8dd3c7" stroke="transparent" points="332,-10 332,-30 352,-30 352,-10 332,-10"/>
<text text-anchor="start" x="355.73" y="-15.4" font-family="sans-serif" font-size="14.00"> &#160;Module</text>
<polygon fill="#80b1d3" stroke="transparent" points="418,-10 418,-30 438,-30 438,-10 418,-10"/>
<text text-anchor="start" x="441.78" y="-15.4" font-family="sans-serif" font-size="14.00"> &#160;Bootstrap</text>
<polygon fill="#fdb462" stroke="transparent" points="515,-10 515,-30 535,-30 535,-10 515,-10"/>
<text text-anchor="start" x="538.67" y="-15.4" font-family="sans-serif" font-size="14.00"> &#160;Providers</text>
<polygon fill="#fb8072" stroke="transparent" points="611,-10 611,-30 631,-30 631,-10 611,-10"/>
<text text-anchor="start" x="634.73" y="-15.4" font-family="sans-serif" font-size="14.00"> &#160;Exports</text>
<g id="clust1" class="cluster">
<title>cluster___module__</title>
<polygon fill="none" stroke="black" stroke-dasharray="1,5" points="8,-78 8,-206 110,-206 110,-78 8,-78"/>
</g>
<g id="clust4" class="cluster">
<title>cluster___module___exports</title>
<polygon fill="none" stroke="black" points="20,-146 20,-198 98,-198 98,-146 20,-146"/>
</g>
<g id="clust7" class="cluster">
<title>cluster_AppModule</title>
<polygon fill="none" stroke="black" stroke-dasharray="1,5" points="118,-70 118,-198 346,-198 346,-70 118,-70"/>
</g>
<g id="clust9" class="cluster">
<title>cluster_AppModule_imports</title>
<polygon fill="none" stroke="black" points="126,-78 126,-130 338,-130 338,-78 126,-78"/>
</g>
<g id="clust13" class="cluster">
<title>cluster_CardModule</title>
<polygon fill="none" stroke="black" stroke-dasharray="1,5" points="354,-138 354,-206 616,-206 616,-138 354,-138"/>
</g>
<g id="clust16" class="cluster">
<title>cluster_CardModule_exports</title>
<polygon fill="none" stroke="black" points="504,-146 504,-198 608,-198 608,-146 504,-146"/>
</g>
<g id="clust18" class="cluster">
<title>cluster_CardModule_providers</title>
<polygon fill="none" stroke="black" points="362,-146 362,-198 496,-198 496,-146 362,-146"/>
</g>
<g id="clust19" class="cluster">
<title>cluster_NewsModule</title>
<polygon fill="none" stroke="black" stroke-dasharray="1,5" points="624,-138 624,-206 898,-206 898,-138 624,-138"/>
</g>
<g id="clust22" class="cluster">
<title>cluster_NewsModule_exports</title>
<polygon fill="none" stroke="black" points="780,-146 780,-198 890,-198 890,-146 780,-146"/>
</g>
<g id="clust24" class="cluster">
<title>cluster_NewsModule_providers</title>
<polygon fill="none" stroke="black" points="632,-146 632,-198 772,-198 772,-146 632,-146"/>
</g>
<!-- Service  -->
<g id="node1" class="node">
<title>Service </title>
<polygon fill="#fb8072" stroke="black" points="89.98,-190 28.02,-190 28.02,-154 89.98,-154 89.98,-190"/>
<text text-anchor="middle" x="59" y="-167.8" font-family="Times,serif" font-size="14.00">Service </text>
</g>
<!-- __module__ -->
<g id="node2" class="node">
<title>__module__</title>
<polygon fill="#8dd3c7" stroke="black" points="102,-122 99,-126 78,-126 75,-122 16,-122 16,-86 102,-86 102,-122"/>
<text text-anchor="middle" x="59" y="-99.8" font-family="Times,serif" font-size="14.00">__module__</text>
</g>
<!-- __module__&#45;&gt;Service  -->
<g id="edge1" class="edge">
<title>__module__&#45;&gt;Service </title>
<path fill="none" stroke="black" stroke-dasharray="5,2" d="M59,-122.22C59,-122.22 59,-143.73 59,-143.73"/>
<polygon fill="black" stroke="black" points="55.5,-143.73 59,-153.73 62.5,-143.73 55.5,-143.73"/>
</g>
<!-- CardModule -->
<g id="node3" class="node">
<title>CardModule</title>
<polygon fill="#8dd3c7" stroke="black" points="220.26,-122 217.26,-126 196.26,-126 193.26,-122 133.74,-122 133.74,-86 220.26,-86 220.26,-122"/>
<text text-anchor="middle" x="177" y="-99.8" font-family="Times,serif" font-size="14.00">CardModule</text>
</g>
<!-- AppModule -->
<g id="node5" class="node">
<title>AppModule</title>
<polygon fill="#8dd3c7" stroke="black" points="271.66,-190 268.66,-194 247.66,-194 244.66,-190 188.34,-190 188.34,-154 271.66,-154 271.66,-190"/>
<text text-anchor="middle" x="230" y="-167.8" font-family="Times,serif" font-size="14.00">AppModule</text>
</g>
<!-- CardModule&#45;&gt;AppModule -->
<g id="edge2" class="edge">
<title>CardModule&#45;&gt;AppModule</title>
<path fill="none" stroke="black" d="M196.22,-122.22C196.22,-122.22 196.22,-143.73 196.22,-143.73"/>
<polygon fill="black" stroke="black" points="192.72,-143.73 196.22,-153.73 199.72,-143.73 192.72,-143.73"/>
</g>
<!-- CardService  -->
<g id="node6" class="node">
<title>CardService </title>
<polygon fill="#fb8072" stroke="black" points="600.19,-190 511.81,-190 511.81,-154 600.19,-154 600.19,-190"/>
<text text-anchor="middle" x="556" y="-167.8" font-family="Times,serif" font-size="14.00">CardService </text>
</g>
<!-- CardModule&#45;&gt;CardService  -->
<g id="edge4" class="edge">
<title>CardModule&#45;&gt;CardService </title>
<path fill="none" stroke="black" stroke-dasharray="5,2" d="M204.28,-122.2C204.28,-128.03 204.28,-133 204.28,-133 204.28,-133 556,-133 556,-133 556,-133 556,-143.87 556,-143.87"/>
<polygon fill="black" stroke="black" points="552.5,-143.87 556,-153.87 559.5,-143.87 552.5,-143.87"/>
</g>
<!-- NewsModule -->
<g id="node4" class="node">
<title>NewsModule</title>
<polygon fill="#8dd3c7" stroke="black" points="329.92,-122 326.92,-126 305.92,-126 302.92,-122 238.08,-122 238.08,-86 329.92,-86 329.92,-122"/>
<text text-anchor="middle" x="284" y="-99.8" font-family="Times,serif" font-size="14.00">NewsModule</text>
</g>
<!-- NewsModule&#45;&gt;AppModule -->
<g id="edge3" class="edge">
<title>NewsModule&#45;&gt;AppModule</title>
<path fill="none" stroke="black" d="M255.06,-122.22C255.06,-122.22 255.06,-143.73 255.06,-143.73"/>
<polygon fill="black" stroke="black" points="251.56,-143.73 255.06,-153.73 258.56,-143.73 251.56,-143.73"/>
</g>
<!-- NewsService  -->
<g id="node8" class="node">
<title>NewsService </title>
<polygon fill="#fb8072" stroke="black" points="881.85,-190 788.15,-190 788.15,-154 881.85,-154 881.85,-190"/>
<text text-anchor="middle" x="835" y="-167.8" font-family="Times,serif" font-size="14.00">NewsService </text>
</g>
<!-- NewsModule&#45;&gt;NewsService  -->
<g id="edge6" class="edge">
<title>NewsModule&#45;&gt;NewsService </title>
<path fill="none" stroke="black" stroke-dasharray="5,2" d="M330.03,-98C462.46,-98 835,-98 835,-98 835,-98 835,-143.71 835,-143.71"/>
<polygon fill="black" stroke="black" points="831.5,-143.71 835,-153.71 838.5,-143.71 831.5,-143.71"/>
</g>
<!-- CardService -->
<g id="node7" class="node">
<title>CardService</title>
<ellipse fill="#fdb462" stroke="black" cx="429" cy="-172" rx="58.53" ry="18"/>
<text text-anchor="middle" x="429" y="-167.8" font-family="Times,serif" font-size="14.00">CardService</text>
</g>
<!-- CardService&#45;&gt;CardModule -->
<g id="edge5" class="edge">
<title>CardService&#45;&gt;CardModule</title>
<path fill="none" stroke="black" d="M429,-153.79C429,-148.45 429,-144 429,-144 429,-144 212.33,-144 212.33,-144 212.33,-144 212.33,-132.13 212.33,-132.13"/>
<polygon fill="black" stroke="black" points="215.83,-132.13 212.33,-122.13 208.83,-132.13 215.83,-132.13"/>
</g>
<!-- NewsService -->
<g id="node9" class="node">
<title>NewsService</title>
<ellipse fill="#fdb462" stroke="black" cx="702" cy="-172" rx="61.95" ry="18"/>
<text text-anchor="middle" x="702" y="-167.8" font-family="Times,serif" font-size="14.00">NewsService</text>
</g>
<!-- NewsService&#45;&gt;NewsModule -->
<g id="edge7" class="edge">
<title>NewsService&#45;&gt;NewsModule</title>
<path fill="none" stroke="black" d="M702,-153.73C702,-135.44 702,-110 702,-110 702,-110 339.93,-110 339.93,-110"/>
<polygon fill="black" stroke="black" points="339.93,-106.5 329.93,-110 339.93,-113.5 339.93,-106.5"/>
</g>
</g>
</svg>
